<svg width="209" height="53" viewBox="0 0 209 53" fill="none" xmlns="http://www.w3.org/2000/svg">
<g clip-path="url(#clip0_2072_72)">
<path d="M80.4109 1.66846L62.4604 47.8884H72.1117L75.8349 38.2345H94.8877L98.59 47.8884H108.158L90.2701 1.66846H80.4109ZM79.1004 29.7489L85.3821 13.495L91.6221 29.7489H79.1004Z" fill="white"/>
<path d="M191.878 14.8271C188.509 14.8271 185.201 15.811 182.393 17.6557C179.585 19.5004 177.401 22.124 176.112 25.1985C174.822 28.273 174.489 31.6549 175.134 34.9139C175.8 38.1728 177.422 41.1653 179.814 43.5225C182.206 45.8796 185.243 47.4783 188.55 48.1342C191.857 48.7901 195.289 48.4417 198.409 47.1709C201.529 45.9001 204.192 43.7479 206.064 40.9809C207.936 38.2138 208.934 34.9549 208.934 31.6344C208.934 27.1661 207.145 22.9028 203.942 19.7463C200.739 16.6104 196.392 14.8271 191.878 14.8271ZM191.878 39.8536C190.235 39.8536 188.633 39.3821 187.261 38.4803C185.888 37.5784 184.827 36.3076 184.203 34.8114C183.579 33.3151 183.413 31.6754 183.725 30.0767C184.037 28.4779 184.827 27.0227 185.992 25.8748C187.157 24.727 188.633 23.9482 190.256 23.6407C191.878 23.3333 193.542 23.4767 195.061 24.1121C196.579 24.727 197.869 25.7724 198.784 27.1251C199.699 28.4779 200.177 30.0562 200.177 31.6754C200.177 32.7412 199.969 33.8275 199.553 34.8114C199.137 35.8157 198.534 36.7176 197.744 37.4759C196.974 38.2343 196.059 38.8492 195.04 39.2592C194.041 39.6281 192.96 39.8536 191.878 39.8536Z" fill="white"/>
<path d="M119.66 35.959L111.881 15.4214H102.688L115.23 47.8881H124.361L136.675 15.4214H127.481L119.66 35.959Z" fill="white"/>
<path d="M165.607 6.79248H156.851V15.4216H151.734V23.1693H156.851V36.984C156.851 44.8138 161.239 48.1752 167.396 48.1752C169.476 48.1957 171.556 47.8063 173.491 47.0069V38.9722C172.451 39.3617 171.348 39.5461 170.225 39.5666C167.563 39.5666 165.628 38.5418 165.628 35.0369V23.1693H173.491V15.4216H165.628V6.79248H165.607Z" fill="white"/>
<path d="M143.851 13.0849C147.366 13.0849 150.237 10.2769 150.237 6.79247C150.237 3.32854 147.387 0.5 143.851 0.5C140.336 0.5 137.465 3.30804 137.465 6.79247C137.486 10.2564 140.336 13.0849 143.851 13.0849Z" fill="white"/>
<path d="M148.24 15.4214H139.483V47.8881H148.24V15.4214Z" fill="white"/>
<path d="M18.0109 52.5002C27.4333 52.5002 35.0877 44.978 35.0877 35.6725C35.0877 26.3875 27.4541 18.8447 18.0109 18.8447C8.56768 18.8652 0.934082 26.3875 0.934082 35.6725C0.934082 44.9575 8.56768 52.5002 18.0109 52.5002Z" fill="#04E061"/>
<path d="M47.6093 50.3683C53.3085 50.3683 57.9261 45.8181 57.9261 40.202C57.9261 34.5859 53.3085 30.0356 47.6093 30.0356C41.9101 30.0356 37.2925 34.5859 37.2925 40.202C37.2925 45.8181 41.9101 50.3683 47.6093 50.3683Z" fill="#FF4053"/>
<path d="M21.2767 16.6719C24.7919 16.6719 27.6623 13.8638 27.6623 10.3794C27.6623 6.89496 24.8127 4.08691 21.2767 4.08691C17.7615 4.08691 14.8911 6.89496 14.8911 10.3794C14.8911 13.8638 17.7407 16.6719 21.2767 16.6719Z" fill="#965EEB"/>
<path d="M43.6158 27.8425C51.2702 27.8425 57.4894 21.714 57.4894 14.1713C57.4894 6.6285 51.2702 0.5 43.6158 0.5C35.9614 0.5 29.7422 6.6285 29.7422 14.1713C29.7214 21.7345 35.9406 27.8425 43.6158 27.8425Z" fill="#00AAFF"/>
</g>
<defs>
<clipPath id="clip0_2072_72">
<rect width="208" height="52" fill="white" transform="translate(0.934082 0.5)"/>
</clipPath>
</defs>
</svg>
