<svg width="330" height="63" viewBox="0 0 330 63" fill="none" xmlns="http://www.w3.org/2000/svg">
<path d="M149.12 31.5582C149.12 43.8884 141.463 49.7045 132.039 49.7045H126.267V42.3762H131.686C137.458 42.3762 141.227 39.3518 141.227 31.6745C141.227 24.1135 137.576 20.2749 131.45 20.2749C125.561 20.2749 121.32 23.8809 121.32 31.5582V62.5H113.428V13.7608H121.32V17.9484H122.498C125.089 14.4587 129.094 12.8302 133.099 12.8302C141.816 12.8302 149.12 19.1116 149.12 31.5582ZM96.9366 28.4174L91.6358 27.9522C87.513 27.6032 85.2749 26.44 85.2749 24.1135C85.2749 21.3218 88.102 19.6932 92.107 19.6932C96.2298 19.6932 98.9391 21.6707 99.1747 24.3462H106.831C106.478 17.3668 101.059 13.0629 92.2248 13.0629C83.3902 13.0629 77.3827 17.7158 77.3827 24.4625C77.3827 30.1623 81.0343 33.7683 89.2799 34.5826L94.6985 35.0478C97.9967 35.3968 100.117 35.9784 100.117 39.1191C100.117 41.9109 98.1145 43.8884 92.696 43.8884C87.7486 43.8884 85.2749 41.6782 84.4504 38.6538H76.2048C77.0293 45.4006 82.8012 50.7514 92.696 50.7514C102.002 50.7514 108.009 45.8659 108.009 38.7702C108.009 32.2561 103.769 29.1154 96.9366 28.4174ZM179.864 38.5375C178.568 41.3293 175.623 43.5394 171.383 43.5394C165.611 43.5394 161.252 39.8171 161.252 31.7908C161.252 24.1135 165.257 19.8096 171.5 19.8096C177.037 19.8096 180.217 23.0666 180.453 28.0685H166.2V33.7683H188.227V30.046C188.227 19.6932 181.277 12.9465 171.383 12.9465C162.195 12.9465 153.36 19.1116 153.36 31.7908C153.36 44.47 162.195 50.6351 171.383 50.6351C179.864 50.6351 185.871 45.5169 187.638 38.5375H179.864ZM54.7662 12.8302C46.0494 12.8302 39.5707 17.2505 38.8639 24.1135H47.3451C47.9341 21.5544 50.29 19.6932 54.7662 19.6932C60.5381 19.6932 62.4228 22.7176 62.4228 26.3236V38.6538C59.1246 42.2599 55.3551 44.0047 51.5857 44.0047C47.6985 44.0047 44.9892 42.1435 44.9892 38.7702C44.9892 35.5131 47.1095 33.5356 51.2323 33.5356H57.5932V27.8358H50.9967C41.9266 27.8358 36.8614 32.2561 36.8614 39.1191C36.8614 45.5169 41.8088 50.4024 49.8188 50.4024C54.295 50.4024 58.3 48.6576 61.2449 46.4475H62.4228V49.4719H70.315V25.742C70.315 16.7852 64.1897 12.8302 54.7662 12.8302ZM0.934082 49.7045H8.82631V0.5H0.934082V49.7045ZM34.2699 13.7608H24.6108L13.0669 28.7664V33.4193L24.9642 49.7045H34.7411L20.8414 31.0929L34.2699 13.7608ZM320.982 13.7608L314.503 27.9522C312.972 31.4418 311.44 34.6989 310.969 37.0253H309.791C309.32 34.8152 307.789 31.5582 306.14 28.0685L299.779 13.7608H291.062L306.375 46.0985L298.836 62.3837H307.318L329.934 13.7608H320.982ZM289.177 13.7608H279.518L267.974 28.7664V33.4193L279.871 49.7045H289.648L275.749 31.0929L289.177 13.7608ZM239.586 28.4174L234.285 27.9522C230.162 27.6032 227.924 26.44 227.924 24.1135C227.924 21.3218 230.751 19.6932 234.756 19.6932C238.879 19.6932 241.588 21.6707 241.824 24.3462H249.48C249.127 17.3668 243.708 13.0629 234.874 13.0629C226.039 13.0629 220.032 17.7158 220.032 24.4625C220.032 30.1623 223.683 33.7683 231.929 34.5826L237.348 35.0478C240.646 35.3968 242.766 35.9784 242.766 39.1191C242.766 41.9109 240.764 43.8884 235.345 43.8884C230.398 43.8884 227.924 41.6782 227.099 38.6538H218.854C219.678 45.4006 225.45 50.7514 235.345 50.7514C244.651 50.7514 250.658 45.8659 250.658 38.7702C250.541 32.2561 246.3 29.1154 239.586 28.4174ZM255.841 49.7045H263.734V0.5H255.841V49.7045ZM203.541 17.9484H202.363V13.7608H194.47V49.7045H202.363V30.9765C202.363 24.5788 205.307 20.8565 211.315 20.8565H216.38V12.9465H213.435C208.017 12.8302 205.661 14.924 203.541 17.9484Z" fill="#00A88E"/>
</svg>
