<svg width="218" height="47" viewBox="0 0 218 47" fill="none" xmlns="http://www.w3.org/2000/svg">
<path d="M91.5701 34.9701H72.8528L96.7485 3.58888C97.2692 2.89982 97.1246 1.89493 96.4303 1.37813C96.1699 1.17715 95.8228 1.06231 95.4756 1.06231H60.9049C57.8673 1.06231 55.3794 3.53146 55.3794 6.54612C55.3794 9.56078 57.8673 12.0299 60.9049 12.0299H76.44L52.4575 43.4398C51.9078 44.1289 52.0525 45.1051 52.7468 45.6506C53.0361 45.8803 53.3832 45.9951 53.7304 45.9664H91.5412C94.5788 45.8228 96.9221 43.2388 96.7774 40.1955C96.6328 37.3818 94.3763 35.1423 91.5412 34.9988V34.9701H91.5701ZM212.38 1.06231C209.342 1.06231 206.854 3.53146 206.854 6.54612V24.9499L176.999 1.43555C176.333 0.890043 175.321 0.976177 174.771 1.66524C174.54 1.95235 174.424 2.29689 174.424 2.67013V40.4826C174.424 43.4972 176.912 45.9664 179.95 45.9664C182.987 45.9664 185.475 43.526 185.475 40.4826V22.0788L215.33 45.6219C216.025 46.1674 217.037 46.0525 217.587 45.3635C217.818 45.0764 217.934 44.7318 217.934 44.3873V6.54612C217.905 3.50275 215.446 1.06231 212.38 1.06231ZM133.373 36.0037C120.731 36.0037 111.3 29.4001 111.3 23.4856C111.3 17.5712 120.76 10.9676 133.373 10.9676C146.015 10.9676 155.446 17.5712 155.446 23.4856C155.446 29.4001 146.044 36.0037 133.373 36.0037ZM133.373 0C115.09 0 100.249 10.5082 100.249 23.4856C100.249 36.463 115.09 46.9713 133.373 46.9713C151.657 46.9713 166.497 36.463 166.497 23.4856C166.497 10.5082 151.657 0 133.373 0ZM24.6273 36.0324C17.6553 36.0324 11.9851 30.4337 11.9851 23.5144C11.9851 16.595 17.6264 10.9676 24.5984 10.9676C31.5704 10.9676 37.2406 16.5663 37.2406 23.4856V23.5144C37.2406 30.405 31.5993 36.0037 24.6273 36.0324ZM24.6273 0C11.5512 0 0.963012 10.5082 0.934082 23.4856C0.934082 36.463 11.5223 46.9713 24.5984 47C37.6745 47 48.2627 36.4917 48.2916 23.5144V23.4856C48.2627 10.5082 37.6745 0 24.6273 0Z" fill="#0077FF"/>
</svg>
