<svg width="326" height="57" viewBox="0 0 326 57" fill="none" xmlns="http://www.w3.org/2000/svg">
<mask id="mask0_2072_56" style="mask-type:luminance" maskUnits="userSpaceOnUse" x="0" y="0" width="326" height="57">
<path d="M325.651 0.5H0.217529V56.5H325.651V0.5Z" fill="white"/>
</mask>
<g mask="url(#mask0_2072_56)">
<path d="M98.7669 35.2436C98.7669 39.4949 94.7597 42.5735 89.1196 42.5735H75.9106V16.186H88.6745C94.1661 16.186 98.0248 19.118 98.0248 23.2227C98.0248 26.008 96.5405 27.7672 94.3146 28.7934C96.689 29.673 98.7669 32.0185 98.7669 35.2436ZM81.6987 21.0238V26.741H88.526C90.6039 26.741 91.9396 25.5682 91.9396 23.9557C91.9396 22.3431 90.4553 21.0238 88.526 21.0238H81.6987ZM89.1196 37.7358C91.346 37.7358 92.9789 36.4164 92.9789 34.5106C92.9789 32.6049 91.4946 31.2855 89.1196 31.2855H81.6987V37.7358H89.1196Z" fill="white"/>
<path d="M120.585 42.4269L111.383 32.0185H109.899V42.4269H103.961V16.186H109.899V26.3012H111.383L120.288 16.186H127.263L116.132 28.7934L128.302 42.4269H120.585Z" fill="white"/>
<path d="M128.303 29.3796C128.303 21.4634 134.239 15.7461 142.55 15.7461C150.862 15.7461 156.799 21.4634 156.799 29.3796C156.799 37.2958 150.862 43.0131 142.55 43.0131C134.239 43.0131 128.303 37.2958 128.303 29.3796ZM150.565 29.3796C150.565 24.3954 147.3 21.0236 142.55 21.0236C137.801 21.0236 134.536 24.3954 134.536 29.3796C134.536 34.3639 137.801 37.7357 142.55 37.7357C147.3 37.7357 150.565 34.3639 150.565 29.3796Z" fill="white"/>
<path d="M179.507 16.186H185.443V42.4269H179.507V31.8719H167.633V42.4269H161.696V16.186H167.633V26.5944H179.507V16.186Z" fill="white"/>
<path d="M198.207 42.4269V21.4635H189.005V16.186H213.197V21.4635H203.995V42.4269H198.207Z" fill="white"/>
<path d="M238.725 27.7671V42.4267H234.421L233.234 38.322C231.898 40.521 229.078 43.0131 224.774 43.0131C219.431 43.0131 215.572 39.4948 215.572 34.6571C215.572 29.8194 219.431 26.4477 227.297 26.4477H233.085C232.789 23.0759 231.007 20.7304 227.742 20.7304C225.071 20.7304 223.29 22.1964 222.399 23.8089L217.056 22.9294C218.392 18.3849 222.993 15.7461 228.039 15.7461C234.57 15.7461 238.725 20.144 238.725 27.7671ZM232.937 30.9922H227.445C222.993 30.9922 221.509 32.4582 221.509 34.3639C221.509 36.5629 223.29 38.0288 226.258 38.0288C230.117 38.0288 232.937 35.2435 232.937 30.9922Z" fill="white"/>
<path d="M261.582 42.4269L252.38 32.0185H250.896V42.4269H244.959V16.186H250.896V26.3012H252.38L261.285 16.186H268.26L257.129 28.7934L269.3 42.4269H261.582Z" fill="white"/>
<path d="M279.986 42.4269V21.4635H270.783V16.186H294.976V21.4635H285.774V42.4269H279.986Z" fill="white"/>
<path d="M324.659 30.9922H303.287C303.881 35.0969 306.849 37.7357 311.301 37.7357C314.419 37.7357 316.793 36.4163 318.129 34.5105L323.62 35.3901C321.691 40.3744 316.496 43.0131 310.856 43.0131C302.842 43.0131 297.053 37.2958 297.053 29.3796C297.053 21.4634 302.842 15.7461 310.856 15.7461C318.871 15.7461 324.659 21.4634 324.659 29.0864C324.807 29.8194 324.659 30.4058 324.659 30.9922ZM303.732 26.4477H318.426C317.387 23.2225 314.715 20.877 311.005 20.877C307.443 20.7304 304.623 23.0759 303.732 26.4477Z" fill="white"/>
<path d="M0.217529 27.38C0.217529 14.7087 0.217529 8.37298 4.20292 4.43649C8.18832 0.5 14.6027 0.5 27.4314 0.5H29.6993C42.528 0.5 48.9424 0.5 52.9278 4.43649C56.9132 8.37298 56.9132 14.7087 56.9132 27.38V29.62C56.9132 42.2913 56.9132 48.627 52.9278 52.5635C48.9424 56.5 42.528 56.5 29.6993 56.5H27.4314C14.6027 56.5 8.18832 56.5 4.20292 52.5635C0.217529 48.627 0.217529 42.2913 0.217529 29.62V27.38Z" fill="#0077FF"/>
<path d="M30.3845 40.8437C17.4626 40.8437 10.0922 32.0937 9.78516 17.5337H16.2579C16.4705 28.2203 21.2423 32.747 25.0219 33.6803V17.5337H31.1169V26.7503C34.8494 26.3536 38.7704 22.1537 40.0933 17.5337H46.1882C45.1724 23.227 40.9203 27.427 37.8965 29.1536C40.9203 30.5536 45.7633 34.217 47.6059 40.8437H40.8967C39.4557 36.4103 35.8652 32.9803 31.1169 32.5136V40.8437H30.3845Z" fill="white"/>
</g>
</svg>
