<svg width="214" height="63" viewBox="0 0 214 63" fill="none" xmlns="http://www.w3.org/2000/svg">
<path d="M26.1401 7.8757H22.0111C14.4411 7.8757 10.4651 11.674 10.4651 17.2949C10.4651 23.6759 13.2178 26.6382 18.8762 30.4365L23.5401 33.551L10.0828 53.5288H0.065918L12.1472 35.6777C5.189 30.74 1.28922 25.9547 1.28922 17.8267C1.28922 7.64808 8.40045 0.735338 21.9346 0.735338H35.3922V53.5288H26.1401V7.8757Z" fill="#FC3F1D"/>
<path d="M101.303 46.3885H88.4576C90.9808 40.6155 91.6691 30.2086 91.6691 23.6001V22.4606H101.303V46.3885ZM110.402 15.3203H83.8699V18.5868C83.8699 27.9298 83.258 40.0079 80.0466 46.3885H77.2174V62.2649H85.6284V53.5292H106.044V62.2649H114.455V46.3885H110.402V15.3203Z" fill="white"/>
<path d="M64.2952 30.4366H52.1374V15.3203H43.0383V53.5289H52.1374V37.577H64.2952V53.5289H73.3942V15.3203H64.2952V30.4366Z" fill="white"/>
<path d="M205.141 21.7013C208.658 21.7013 212.099 22.9166 213.934 24.056V16.3838C212.022 15.3203 208.658 14.5609 204.147 14.5609C192.525 14.5609 186.484 22.8407 186.484 34.4625C186.484 47.2244 192.371 54.2889 204.529 54.2889C208.735 54.2889 211.717 53.5292 213.934 51.9342V44.5656C211.64 46.1609 208.888 47.1482 205.064 47.1482C198.565 47.1482 195.889 42.135 195.889 34.2349C195.889 25.9551 199.177 21.7013 205.141 21.7013Z" fill="white"/>
<path d="M185.26 15.3203H176.085L163.239 32.9434V15.3203H154.14V53.5292H163.239V34.7663L176.696 53.5292H187.019L172.415 32.9434L185.26 15.3203Z" fill="white"/>
<path d="M138.771 30.9684H126.078C126.307 24.8915 128.525 21.7012 132.883 21.7012C137.394 21.7012 138.771 25.4233 138.771 30.2086V30.9684ZM133.036 14.5606C121.949 14.5606 116.673 22.9924 116.673 34.5384C116.673 47.8321 123.249 54.2889 134.871 54.2889C140.682 54.2889 144.964 52.7695 147.641 50.9462V43.5782C144.811 45.477 140.071 47.1482 135.636 47.1482C128.984 47.1482 126.46 44.0341 126.078 37.6531H148.023V32.8675C148.023 19.5741 142.135 14.5606 133.036 14.5606Z" fill="white"/>
</svg>
